<svg width="343" height="90" viewBox="0 0 343 90" fill="none" xmlns="http://www.w3.org/2000/svg">
<rect x="0.5" y="0.5" width="342" height="89" rx="15.5" stroke="url(#paint0_linear_1_11416)"/>
<path d="M13.6934 44H31.1084V40.0156H18.3418L20.251 41.5596V38.1895L18.3252 41.5596L25.2646 35.2344C26.6481 33.9616 27.7383 32.8659 28.5352 31.9473C29.332 31.0176 29.902 30.1432 30.2451 29.3242C30.5993 28.4941 30.7764 27.5977 30.7764 26.6348V26.6016C30.7764 25.2402 30.4167 24.0339 29.6973 22.9824C28.9779 21.931 27.9762 21.112 26.6924 20.5254C25.4085 19.9277 23.9199 19.6289 22.2266 19.6289C20.5443 19.6289 19.0335 19.9554 17.6943 20.6084C16.3662 21.2614 15.3203 22.1689 14.5566 23.3311C13.793 24.4821 13.4111 25.8102 13.4111 27.3154V27.4482H18.0596L18.0762 27.2988C18.0983 26.5794 18.2865 25.9375 18.6406 25.373C18.9948 24.7975 19.4818 24.3493 20.1016 24.0283C20.7214 23.6963 21.4408 23.5303 22.2598 23.5303C22.9681 23.5303 23.5934 23.6742 24.1357 23.9619C24.6891 24.2497 25.1208 24.6481 25.4307 25.1572C25.7406 25.6553 25.8955 26.2308 25.8955 26.8838V26.917C25.8955 27.4704 25.7959 28.0016 25.5967 28.5107C25.4085 29.0199 25.0488 29.5954 24.5176 30.2373C23.9863 30.8792 23.2005 31.6816 22.1602 32.6445L13.6934 40.5635V44Z" fill="white"/>
<path d="M13.1191 73H14.3906L19.0137 66.2676L18.123 66.7422H18.791V73H20.0977V64.5449H18.8262L14.209 71.2949L15.0879 70.8262H14.4258V64.5449H13.1191V73ZM22.5996 74.6699V73H27.3398V74.6699H28.5117V71.9863H27.5156V66.6367H22.916L22.6816 70.0645C22.6543 70.4941 22.582 70.8848 22.4648 71.2363C22.3516 71.5879 22.1777 71.8379 21.9434 71.9863H21.4277V74.6699H22.5996ZM26.2441 71.9863H23.3379V71.8867C23.4824 71.6875 23.5957 71.4336 23.6777 71.125C23.7598 70.8164 23.8125 70.4805 23.8359 70.1172L24.0176 67.6504H26.2441V71.9863ZM32.4609 73.123C32.8711 73.123 33.2324 73.0703 33.5449 72.9648C33.8613 72.8594 34.1309 72.7207 34.3535 72.5488C34.5801 72.377 34.7617 72.1875 34.8984 71.9805C35.0352 71.7695 35.1309 71.5586 35.1855 71.3477L35.1973 71.2949H33.9668L33.9434 71.3418C33.8965 71.4512 33.8086 71.5625 33.6797 71.6758C33.5547 71.7891 33.3926 71.8848 33.1934 71.9629C32.998 72.0371 32.7637 72.0742 32.4902 72.0742C32.1348 72.0742 31.8262 71.9961 31.5645 71.8398C31.3066 71.6836 31.1074 71.457 30.9668 71.1602C30.8262 70.8633 30.7559 70.5059 30.7559 70.0879V69.5781C30.7559 69.1406 30.8262 68.7715 30.9668 68.4707C31.1113 68.1699 31.3066 67.9434 31.5527 67.791C31.8027 67.6348 32.0859 67.5566 32.4023 67.5566C32.7188 67.5566 32.998 67.6309 33.2402 67.7793C33.4824 67.9277 33.6719 68.1523 33.8086 68.4531C33.9492 68.75 34.0195 69.125 34.0195 69.5781V70.0879L34.6289 69.2441H30.1172V70.1523H35.2617V69.707C35.2617 69.0664 35.1465 68.5078 34.916 68.0312C34.6855 67.5508 34.3555 67.1777 33.9258 66.9121C33.5 66.6465 32.9902 66.5137 32.3965 66.5137C31.8066 66.5137 31.291 66.6523 30.8496 66.9297C30.4121 67.207 30.0723 67.5938 29.8301 68.0898C29.5918 68.5859 29.4727 69.166 29.4727 69.8301V69.8359C29.4727 70.5078 29.5918 71.0898 29.8301 71.582C30.0723 72.0742 30.416 72.4551 30.8613 72.7246C31.3066 72.9902 31.8398 73.123 32.4609 73.123ZM38.6367 73.1055C38.918 73.1055 39.1777 73.0664 39.416 72.9883C39.6543 72.9102 39.8672 72.7969 40.0547 72.6484C40.2422 72.4961 40.3984 72.3125 40.5234 72.0977H40.6172V73H41.8828V68.6465C41.8828 68.2012 41.7852 67.8203 41.5898 67.5039C41.3984 67.1836 41.1152 66.9395 40.7402 66.7715C40.3691 66.5996 39.916 66.5137 39.3809 66.5137C38.9004 66.5137 38.4727 66.5859 38.0977 66.7305C37.7266 66.875 37.4258 67.0781 37.1953 67.3398C36.9688 67.5977 36.8301 67.9023 36.7793 68.2539L36.7734 68.2949H37.998L38.0098 68.2773C38.084 68.0508 38.2324 67.875 38.4551 67.75C38.6816 67.625 38.9727 67.5625 39.3281 67.5625C39.7539 67.5625 40.0742 67.6562 40.2891 67.8438C40.5078 68.0273 40.6172 68.2949 40.6172 68.6465V70.6504C40.6172 70.9238 40.5469 71.1699 40.4062 71.3887C40.2656 71.6035 40.0703 71.7754 39.8203 71.9043C39.5742 72.0293 39.293 72.0918 38.9766 72.0918C38.6367 72.0918 38.3555 72.0098 38.1328 71.8457C37.9102 71.6777 37.7988 71.4492 37.7988 71.1602V71.1484C37.7988 70.8633 37.9023 70.6426 38.1094 70.4863C38.3164 70.3262 38.6387 70.2324 39.0762 70.2051L41.25 70.0645V69.168L38.9004 69.3086C38.3965 69.3398 37.9668 69.4336 37.6113 69.5898C37.2598 69.7422 36.9902 69.9531 36.8027 70.2227C36.6191 70.4922 36.5273 70.8184 36.5273 71.2012V71.2129C36.5273 71.5957 36.6191 71.9297 36.8027 72.2148C36.9863 72.5 37.2363 72.7207 37.5527 72.877C37.873 73.0293 38.2344 73.1055 38.6367 73.1055ZM45.4922 70.3516L45.6914 67.6445H47.7012V73H48.9785V66.6367H44.5781L44.332 70.252C44.3164 70.5605 44.2773 70.8418 44.2148 71.0957C44.1562 71.3457 44.0664 71.5449 43.9453 71.6934C43.8281 71.8418 43.6699 71.916 43.4707 71.916C43.3926 71.916 43.3184 71.9121 43.248 71.9043C43.1777 71.8926 43.127 71.8828 43.0957 71.875V72.9883C43.1426 73.0039 43.209 73.0195 43.2949 73.0352C43.3809 73.0508 43.4863 73.0586 43.6113 73.0586C44.0098 73.0586 44.3398 72.959 44.6016 72.7598C44.8633 72.5605 45.0664 72.2598 45.2109 71.8574C45.3555 71.4551 45.4492 70.9531 45.4922 70.3516ZM50.9121 73H53.4375C54.1758 73 54.7637 72.8027 55.2012 72.4082C55.6387 72.0098 55.8574 71.4766 55.8574 70.8086V70.7969C55.8574 70.1289 55.6387 69.5977 55.2012 69.2031C54.7637 68.8047 54.1758 68.6055 53.4375 68.6055H52.1895V66.6367H50.9121V73ZM53.332 69.6133C53.7109 69.6133 54.0117 69.7207 54.2344 69.9355C54.4609 70.1504 54.5742 70.4375 54.5742 70.7969V70.8086C54.5742 71.1641 54.4629 71.4512 54.2402 71.6699C54.0176 71.8848 53.7148 71.9922 53.332 71.9922H52.1895V69.6133H53.332ZM61.5469 73H62.8242V66.6367H61.5469V69.2031H58.6699V66.6367H57.3926V73H58.6699V70.2109H61.5469V73ZM64.7637 73H67.2891C68.0273 73 68.6152 72.8027 69.0527 72.4082C69.4902 72.0098 69.709 71.4766 69.709 70.8086V70.7969C69.709 70.1289 69.4902 69.5977 69.0527 69.2031C68.6152 68.8047 68.0273 68.6055 67.2891 68.6055H66.041V66.6367H64.7637V73ZM67.1836 69.6133C67.5625 69.6133 67.8633 69.7207 68.0859 69.9355C68.3125 70.1504 68.4258 70.4375 68.4258 70.7969V70.8086C68.4258 71.1641 68.3145 71.4512 68.0918 71.6699C67.8691 71.8848 67.5664 71.9922 67.1836 71.9922H66.041V69.6133H67.1836ZM70.7812 73H72.0527V66.6367H70.7812V73ZM76.6641 73.123C77.0742 73.123 77.4355 73.0703 77.748 72.9648C78.0645 72.8594 78.334 72.7207 78.5566 72.5488C78.7832 72.377 78.9648 72.1875 79.1016 71.9805C79.2383 71.7695 79.334 71.5586 79.3887 71.3477L79.4004 71.2949H78.1699L78.1465 71.3418C78.0996 71.4512 78.0117 71.5625 77.8828 71.6758C77.7578 71.7891 77.5957 71.8848 77.3965 71.9629C77.2012 72.0371 76.9668 72.0742 76.6934 72.0742C76.3379 72.0742 76.0293 71.9961 75.7676 71.8398C75.5098 71.6836 75.3105 71.457 75.1699 71.1602C75.0293 70.8633 74.959 70.5059 74.959 70.0879V69.5781C74.959 69.1406 75.0293 68.7715 75.1699 68.4707C75.3145 68.1699 75.5098 67.9434 75.7559 67.791C76.0059 67.6348 76.2891 67.5566 76.6055 67.5566C76.9219 67.5566 77.2012 67.6309 77.4434 67.7793C77.6855 67.9277 77.875 68.1523 78.0117 68.4531C78.1523 68.75 78.2227 69.125 78.2227 69.5781V70.0879L78.832 69.2441H74.3203V70.1523H79.4648V69.707C79.4648 69.0664 79.3496 68.5078 79.1191 68.0312C78.8887 67.5508 78.5586 67.1777 78.1289 66.9121C77.7031 66.6465 77.1934 66.5137 76.5996 66.5137C76.0098 66.5137 75.4941 66.6523 75.0527 66.9297C74.6152 67.207 74.2754 67.5938 74.0332 68.0898C73.7949 68.5859 73.6758 69.166 73.6758 69.8301V69.8359C73.6758 70.5078 73.7949 71.0898 74.0332 71.582C74.2754 72.0742 74.6191 72.4551 75.0645 72.7246C75.5098 72.9902 76.043 73.123 76.6641 73.123ZM84.7676 74.6699V73H89.5078V74.6699H90.6797V71.9863H89.6836V66.6367H85.084L84.8496 70.0645C84.8223 70.4941 84.75 70.8848 84.6328 71.2363C84.5195 71.5879 84.3457 71.8379 84.1113 71.9863H83.5957V74.6699H84.7676ZM88.4121 71.9863H85.5059V71.8867C85.6504 71.6875 85.7637 71.4336 85.8457 71.125C85.9277 70.8164 85.9805 70.4805 86.0039 70.1172L86.1855 67.6504H88.4121V71.9863ZM96.1055 73H97.3828V66.6367H96.1055V69.2031H93.2285V66.6367H91.9512V73H93.2285V70.2109H96.1055V73ZM99.3223 73H100.588L103.77 68.0312L102.908 68.5176H103.57V73H104.836V66.6367H103.57L100.389 71.582L101.25 71.1016H100.588V66.6367H99.3223V73Z" fill="white"/>
<defs>
<linearGradient id="paint0_linear_1_11416" x1="343" y1="45" x2="3.02609e-06" y2="45" gradientUnits="userSpaceOnUse">
<stop stop-color="#007BFA"/>
<stop offset="0.526042" stop-color="#46E69D"/>
<stop offset="1" stop-color="#FD4C49"/>
</linearGradient>
</defs>
</svg>
